<?xml version="1.0" standalone="no"?>
<!DOCTYPE svg PUBLIC "-//W3C//DTD SVG 20010904//EN"
 "http://www.w3.org/TR/2001/REC-SVG-20010904/DTD/svg10.dtd">
<svg version="1.0" xmlns="http://www.w3.org/2000/svg"
 width="144.000000pt" height="144.000000pt" viewBox="0 0 144.000000 144.000000"
 preserveAspectRatio="xMidYMid meet">
<metadata>
Created by potrace 1.11, written by Peter Selinger 2001-2013
</metadata>
<g transform="translate(0.000000,144.000000) scale(0.100000,-0.100000)"
fill="#000000" stroke="none">
<path d="M78 1423 c-27 -11 -43 -27 -58 -58 -20 -42 -21 -54 -18 -656 3 -585
4 -616 22 -646 36 -60 16 -58 685 -61 603 -3 614 -2 656 18 73 35 70 9 70 705
0 593 -1 621 -19 652 -36 60 -15 58 -686 60 -534 1 -620 -1 -652 -14z"/>
</g>
</svg>
